HIERARCHY
ROOT Hips
{
	OFFSET 0.00000 0.00000 0.00000
	CHANNELS 6 Xposition Yposition Zposition Zrotation Yrotation Xrotation 
	JOINT LHipJoint
	{
		OFFSET 0 0 0
		CHANNELS 3 Zrotation Yrotation Xrotation
		JOINT LeftUpLeg
		{
			OFFSET 1.24777 -1.64261 0.71711
			CHANNELS 3 Zrotation Yrotation Xrotation
			JOINT LeftLeg
			{
				OFFSET 2.49329 -6.85026 0.00000
				CHANNELS 3 Zrotation Yrotation Xrotation
				JOINT LeftFoot
				{
					OFFSET 2.36770 -6.50520 0.00000
					CHANNELS 3 Zrotation Yrotation Xrotation
					JOINT LeftToeBase
					{
						OFFSET 0.14820 -0.40718 2.21395
						CHANNELS 3 Zrotation Yrotation Xrotation
						End Site
						{
							OFFSET 0.00000 -0.00000 1.13491
						}
					}
				}
			}
		}
	}
	JOINT RHipJoint
	{
		OFFSET 0 0 0
		CHANNELS 3 Zrotation Yrotation Xrotation
		JOINT RightUpLeg
		{
			OFFSET -1.18320 -1.64261 0.71711
			CHANNELS 3 Zrotation Yrotation Xrotation
			JOINT RightLeg
			{
				OFFSET -2.46559 -6.77417 0.00000
				CHANNELS 3 Zrotation Yrotation Xrotation
				JOINT RightFoot
				{
					OFFSET -2.38450 -6.55136 0.00000
					CHANNELS 3 Zrotation Yrotation Xrotation
					JOINT RightToeBase
					{
						OFFSET -0.17454 -0.47954 2.02925
						CHANNELS 3 Zrotation Yrotation Xrotation
						End Site
						{
							OFFSET -0.00000 -0.00000 1.05076
						}
					}
				}
			}
		}
	}
	JOINT LowerBack
	{
		OFFSET 0 0 0
		CHANNELS 3 Zrotation Yrotation Xrotation
		JOINT Spine
		{
			OFFSET -0.02305 1.98660 0.00319
			CHANNELS 3 Zrotation Yrotation Xrotation
			JOINT Spine1
			{
				OFFSET -0.00718 1.99033 -0.00533
				CHANNELS 3 Zrotation Yrotation Xrotation
				JOINT Neck
				{
					OFFSET 0 0 0
					CHANNELS 3 Zrotation Yrotation Xrotation
					JOINT Neck1
					{
						OFFSET 0.00095 1.61015 0.10698
						CHANNELS 3 Zrotation Yrotation Xrotation
						JOINT Head
						{
							OFFSET -0.01060 1.59924 0.01317
							CHANNELS 3 Zrotation Yrotation Xrotation
							End Site
							{
								OFFSET -0.00458 1.63304 -0.00592
							}
						}
					}
				}
				JOINT LeftShoulder
				{
					OFFSET 0 0 0
					CHANNELS 3 Zrotation Yrotation Xrotation
					JOINT LeftArm
					{
						OFFSET 3.05381 1.47088 -0.01697
						CHANNELS 3 Zrotation Yrotation Xrotation
						JOINT LeftForeArm
						{
							OFFSET 4.25106 -0.00000 0.00000
							CHANNELS 3 Zrotation Yrotation Xrotation
							JOINT LeftHand
							{
								OFFSET 3.27592 -0.00000 0.00000
								CHANNELS 3 Zrotation Yrotation Xrotation
								JOINT LeftFingerBase
								{
									OFFSET 0 0 0
									CHANNELS 3 Zrotation Yrotation Xrotation
									JOINT LeftHandIndex1
									{
										OFFSET 0.65781 -0.00000 0.00000
										CHANNELS 3 Zrotation Yrotation Xrotation
										End Site
										{
											OFFSET 0.53034 -0.00000 0.00000
										}
									}
								}
								JOINT LThumb
								{
									OFFSET 0 0 0
									CHANNELS 3 Zrotation Yrotation Xrotation
									End Site
									{
										OFFSET 0.53844 -0.00000 0.53844
									}
								}
							}
						}
					}
				}
				JOINT RightShoulder
				{
					OFFSET 0 0 0
					CHANNELS 3 Zrotation Yrotation Xrotation
					JOINT RightArm
					{
						OFFSET -2.83695 1.31619 -0.22674
						CHANNELS 3 Zrotation Yrotation Xrotation
						JOINT RightForeArm
						{
							OFFSET -4.46073 -0.00000 0.00000
							CHANNELS 3 Zrotation Yrotation Xrotation
							JOINT RightHand
							{
								OFFSET -3.44416 -0.00000 0.00000
								CHANNELS 3 Zrotation Yrotation Xrotation
								JOINT RightFingerBase
								{
									OFFSET 0 0 0
									CHANNELS 3 Zrotation Yrotation Xrotation
									JOINT RightHandIndex1
									{
										OFFSET -0.61651 -0.00000 0.00000
										CHANNELS 3 Zrotation Yrotation Xrotation
										End Site
										{
											OFFSET -0.49705 -0.00000 0.00000
										}
									}
								}
								JOINT RThumb
								{
									OFFSET 0 0 0
									CHANNELS 3 Zrotation Yrotation Xrotation
									End Site
									{
										OFFSET -0.50464 -0.00000 0.50464
									}
								}
							}
						}
					}
				}
			}
		}
	}
}
MOTION
Frames: 7
Frame Time: 0.02
0.00 0.00 0.00 0 0 0 0 0 0 -21 0 0 0 0 0 0 0 0 0 0 0 0 0 0 21 0 0 0 0 0 0 0 0 0 0 0 0 0 0 0 0 0 0 0 0 0 0 -16 0 0 21 0 0 11 0 0 0 -8 0 0 0 0 0 0 0 0 0 0 0 0 0 0 0 0 0 0 0 0 8 0 0 0 0 0 0 0 0 0 0 0 0 0 0 0 0 0
0.00 0.00 0.00 -2.8690 -0.4411 9.4130 0.0000 0.0000 0.0000 -16.6401 -3.0203 -29.1712 6.0033 14.4315 44.9949 1.4945 -7.8178 -21.8744 0.0885 1.9186 5.2809 0.0000 0.0000 0.0000 21.1403 -0.1088 -17.7894 -3.5501 -11.5363 34.1107 -1.4607 -7.9242 -26.9174 -0.0909 -1.9449 5.3533 1.9209 1.2797 -3.0708 0.5092 1.6478 -1.2489 -0.4977 0.8206 0.4795 0.4514 -1.9461 -6.0286 1.3462 -2.5267 -9.7896 0.3460 -1.2976 -2.0345 0.0000 0.0000 0.0000 -82.8016 8.6621 41.2711 26.5461 -37.7429 -9.2199 -0.0000 0.0000 -1.3420 7.5981 10.0524 1.3338 -7.1250 0.0000 -0.0000 -16.8349 39.5557 2.3360 0.0000 0.0000 0.0000 89.1065 -8.7334 39.1898 -23.1372 34.2385 -7.2154 0.0000 0.0000 11.5394 -21.4018 -18.8518 7.2176 7.1250 -0.0000 -0.0000 6.7621 -49.9983 -0.8366
0.00 0.00 0.00 -5.9700 -0.3717 8.8847 0.0000 0.0000 0.0000 -11.5375 0.0743 -40.7762 10.4313 17.6454 60.9204 -0.0131 -9.8740 -6.6979 0.1843 2.7647 7.6245 0.0000 0.0000 0.0000 25.2672 -1.1385 -14.3418 -2.5485 -9.9255 28.7359 -1.4226 -7.4037 -26.2935 -0.3220 -3.6476 10.0874 4.2380 2.2414 -1.3922 1.4376 2.9428 -0.9491 -0.8540 1.4583 -0.0572 0.5400 -2.3415 -6.2879 1.1005 -3.0776 -9.1659 0.2441 -1.5656 -1.7909 -0.0000 0.0000 0.0000 -83.4976 8.6400 39.0818 28.1711 -39.2732 -10.2318 -0.0000 0.0000 -3.1432 7.1944 7.2220 0.9091 -7.1250 0.0000 -0.0000 -16.4800 36.7963 3.4409 -0.0000 0.0000 0.0000 86.9641 -8.1401 41.4990 -25.0748 36.2804 -8.3341 0.0000 0.0000 9.1778 -21.4282 -19.7714 7.5623 7.1250 -0.0000 -0.0000 7.0038 -50.9626 -1.0332
0.00 0.00 0.00 -7.0459 -3.6094 5.6083 0.0000 0.0000 0.0000 -3.8882 -15.3362 -31.1167 5.4636 13.8876 42.7889 0.6656 -1.4724 -14.9793 0.0017 -0.2685 -0.7377 0.0000 0.0000 0.0000 16.7262 -11.2050 -14.7656 -6.2856 -14.6995 46.1174 -0.7022 0.8058 -15.5787 -2.8085 10.3784 -30.2111 0.9423 5.4192 -3.2700 1.8591 7.2152 -2.5551 1.5474 3.6164 -0.9279 1.4089 -3.6760 -8.1327 1.1258 -5.0712 1.3265 -0.0855 -2.4868 1.7878 0.0000 0.0000 0.0000 -88.0945 20.6045 13.4271 21.6683 -32.6001 -6.4062 -0.0000 -0.0000 2.4322 2.2604 12.6818 0.4965 -7.1250 0.0000 -0.0000 -22.1181 41.5693 1.9803 0.0000 0.0000 0.0000 82.6742 -4.0754 35.2762 -36.4535 45.8225 -15.8469 0.0000 -0.0000 -0.0848 -4.6940 -11.8158 0.9632 7.1250 -0.0000 -0.0000 19.7850 -40.9873 2.0488
0.00 0.00 0.00 -6.8073 -1.3151 4.3573 0.0000 0.0000 0.0000 -5.6142 -14.5123 -29.5181 5.2420 13.6512 41.8578 0.6666 -4.7797 -14.5465 0.0160 0.8159 2.2424 0.0000 0.0000 0.0000 13.1394 -10.5147 -21.7432 -10.3067 -17.5788 60.5087 0.0734 5.0129 0.2927 -1.4510 7.6141 -21.5480 0.4953 4.7725 -2.3879 2.0911 6.3806 -2.4034 1.9342 3.2075 -1.3204 1.2414 -3.8754 -8.5593 1.2591 -5.3544 2.4392 -0.0537 -2.6108 2.2411 -0.0000 -0.0000 0.0000 -88.0133 20.3766 13.4647 21.8154 -32.7678 -6.4856 -0.0000 -0.0000 0.4105 2.9662 13.2030 0.6781 -7.1250 0.0000 -0.0000 -21.7010 42.1215 1.6258 -0.0000 -0.0000 0.0000 81.0652 -5.7133 31.7480 -37.8358 46.7341 -16.8459 0.0000 -0.0000 -3.3470 -4.4594 -11.5616 0.8955 7.1250 -0.0000 -0.0000 19.9044 -40.7268 2.1966
0.00 0.00 0.00 -6.5302 0.6848 2.9745 0.0000 0.0000 0.0000 -7.2767 -13.3732 -27.5432 4.8787 13.2458 40.2958 0.5497 -7.7833 -13.4779 0.0871 1.9037 5.2396 0.0000 0.0000 0.0000 8.4857 -7.2283 -28.7362 -15.1647 -19.4300 75.7324 -0.4499 8.8045 18.8049 -0.1845 2.7665 -7.6292 -0.0676 4.0945 -1.0499 2.3203 5.4996 -2.0949 2.3781 2.7773 -1.7985 1.2230 -3.9342 -8.8697 1.0805 -5.4445 3.3384 -0.1326 -2.6500 2.5953 -0.0000 -0.0000 0.0000 -87.2345 20.4415 15.7362 22.8205 -33.8920 -7.0380 -0.0000 0.0000 -0.9186 2.7719 13.5793 0.6513 -7.1250 0.0000 -0.0000 -21.9973 42.4514 1.4608 -0.0000 -0.0000 0.0000 79.0860 -7.1614 28.6804 -39.0337 47.4869 -17.7236 0.0000 -0.0000 -4.4144 -6.9577 -11.8199 1.4319 7.1250 -0.0000 -0.0000 17.8660 -41.1977 1.7379
0.00 0.00 0.00 -6.6891 3.6772 0.3801 0.0000 0.0000 0.0000 -8.7825 -12.8035 -23.7734 4.3451 12.6060 37.9109 0.3465 -10.3059 -11.8870 0.1608 2.5837 7.1217 0.0000 0.0000 0.0000 1.2447 -0.9940 -37.0049 -21.7430 -19.9270 95.1021 -2.5056 12.4357 36.3474 -0.1138 -2.1746 5.9884 -0.6159 3.0437 1.6250 2.8709 4.1133 -1.2616 3.1360 2.0945 -2.4618 1.1479 -3.9358 -8.7452 0.7018 -5.4192 3.5928 -0.2402 -2.6504 2.6486 -0.0000 -0.0000 0.0000 -84.9949 19.7570 21.2680 24.2641 -35.4423 -7.8592 -0.0000 0.0000 -0.0576 1.1014 11.9702 0.2285 -7.1250 0.0000 -0.0000 -22.8451 40.8030 2.5143 -0.0000 -0.0000 0.0000 76.1348 -9.0338 25.0274 -40.4178 48.3155 -18.7507 0.0000 -0.0000 -0.6128 -13.6095 -12.4947 2.9983 7.1250 -0.0000 -0.0000 12.2873 -42.4914 0.7732
